<svg xmlns="http://www.w3.org/2000/svg" width="385" height="169" viewBox="0 0 385 169">
  <title>my_icons</title>
  <g id="start">
    <rect width="385" height="5" fill="#a39b9b"/>
  </g>
  <g id="close">
    <g id="close-2" data-name="close">
      <path d="M168.87,28.07,44.59,174.18a3.7,3.7,0,0,1-3.91.72h0c-1.37-.54-1.84-1.73-1-2.66L163.91,26.13a3.68,3.68,0,0,1,3.91-.71h0C169.19,26,169.66,27.14,168.87,28.07Z" transform="translate(-25 -9)" fill="#a39b9b"/>
      <path d="M39.63,28.07,163.91,174.18a3.7,3.7,0,0,0,3.91.72h0c1.37-.54,1.84-1.73,1.05-2.66L44.59,26.13a3.68,3.68,0,0,0-3.91-.71h0C39.31,26,38.84,27.14,39.63,28.07Z" transform="translate(-25 -9)" fill="#a39b9b"/>
    </g>
  </g>
  <g id="full_screen">
    <g>
      <rect x="193" y="17" width="130" height="150" rx="12" fill="none" stroke="#a39b9b" stroke-miterlimit="10" stroke-width="4" stroke-dasharray="40"/>
      <g>
        <line x1="211.7" y1="145.42" x2="305.03" y2="37.74" fill="none" stroke="#a39b9b" stroke-miterlimit="10" stroke-width="4"/>
        <path d="M269.11,146.34a2,2,0,0,0-2.49-1.35l-29.32,8.74,4.48-30.27a2,2,0,0,0-4-.58l-4.94,33.37a2,2,0,0,0,2.55,2.21l32.34-9.63a2.05,2.05,0,0,0,.94-.61A2,2,0,0,0,269.11,146.34Z" transform="translate(-25 -9)" fill="#a39b9b"/>
        <path d="M326.63,80A2,2,0,0,1,325,77.7l4.48-30.27L300.1,56.17A2,2,0,0,1,299,52.33L331.3,42.7a2,2,0,0,1,2.55,2.21l-5,33.38a2,2,0,0,1-.46,1A2,2,0,0,1,326.63,80Z" transform="translate(-25 -9)" fill="#a39b9b"/>
      </g>
    </g>
  </g>
</svg>
